<?xml version="1.0" standalone="no"?><svg xmlns="http://www.w3.org/2000/svg" viewBox="0 0 1440 320"><path fill="#FF7600" fill-opacity="1" d="M0,256L16,224C32,192,64,128,96,133.3C128,139,160,213,192,218.7C224,224,256,160,288,117.3C320,75,352,53,384,58.7C416,64,448,96,480,117.3C512,139,544,149,576,160C608,171,640,181,672,170.7C704,160,736,128,768,117.3C800,107,832,117,864,106.7C896,96,928,64,960,58.7C992,53,1024,75,1056,74.7C1088,75,1120,53,1152,80C1184,107,1216,181,1248,186.7C1280,192,1312,128,1344,117.3C1376,107,1408,149,1424,170.7L1440,192L1440,320L1424,320C1408,320,1376,320,1344,320C1312,320,1280,320,1248,320C1216,320,1184,320,1152,320C1120,320,1088,320,1056,320C1024,320,992,320,960,320C928,320,896,320,864,320C832,320,800,320,768,320C736,320,704,320,672,320C640,320,608,320,576,320C544,320,512,320,480,320C448,320,416,320,384,320C352,320,320,320,288,320C256,320,224,320,192,320C160,320,128,320,96,320C64,320,32,320,16,320L0,320Z"></path></svg>